<?xml version="1.0" encoding="UTF-8" standalone="no"?>
<!-- Created with Inkscape (http://www.inkscape.org/) -->

<svg
   width="209.92mm"
   height="141.96819mm"
   viewBox="0 0 209.92 141.96819"
   version="1.1"
   id="svg5"
   xmlns="http://www.w3.org/2000/svg"
   xmlns:svg="http://www.w3.org/2000/svg">
  <defs
     id="defs2" />
  <path
     style="fill:#000000;stroke:none;stroke-width:0;stroke-dasharray:none;stroke-opacity:1"
     d="m 154.04926,130.26486 c 0,0 -21.38873,15.62432 -62.418749,10.76714 -41.029027,-4.88111 -60.405333,-26.38187 -60.405333,-26.38187 0,0 -30.70737296,-4.8811 -31.21023286,-31.270158 -0.5176466,-26.38426 12.58377686,-36.64654 12.58377686,-36.64654 0,0 -1.503644,-18.59124 15.100534,-26.87237 16.611571,-8.30266 27.182438,2.91909 27.182438,2.91909 0,0 22.147937,-25.8961597 49.834226,-22.46741974 27.68579,3.42156004 39.76722,32.24874974 39.76722,32.24874974 0,0 16.08898,-9.35543 29.69944,-2.94301 13.61167,6.41242 18.12013,24.91993 18.12013,24.91993 0,0 17.61729,8.32659 17.61729,23.44843 0,15.14577 -18.62301,25.398468 -18.62301,25.398468 0,0 -1.01063,14.64331 -13.59194,21.98889 -12.58379,7.32165 -23.659,4.8811 -23.659,4.8811 z"
     id="path526" />
</svg>
